# Made in Blockbench 4.10.4
mtllib materials.mtl

o cone
v -0.0915063509461097 2.6903484377702744 -0.08443321931967461
v -0.0915063509461097 2.4441464995172226 -0.04102117490294194
v -0.05801270189221938 2.668642415561908 -0.2075341884462006
v -5.551115123125783e-17 2.674458526683532 -0.1745493831812594
v 0.033493649053890295 2.6845323266486507 -0.11741802458461581
v 0.033493649053890295 2.696164548891898 -0.05144841405473338
v -5.551115123125783e-17 2.706238348857017 0.005682944541910193
v -0.05801270189221933 2.7120544599786407 0.038667749806851365
v -0.12499999999999999 2.7120544599786407 0.03866774980685142
v -0.18301270189221935 2.706238348857017 0.005682944541910193
v -0.21650635094610965 2.696164548891898 -0.05144841405473341
v -0.2165063509461097 2.6845323266486507 -0.11741802458461575
v -0.18301270189221935 2.674458526683532 -0.1745493831812594
v -0.12500000000000003 2.668642415561908 -0.2075341884462006
vt 0.483253125 0.6395031250000001
vt 0.454246875 0.65625
vt 0.4375 0.59375
vt 0.5 0.6104968749999999
vt 0.483253125 0.6395031250000001
vt 0.4375 0.59375
vt 0.5 0.5770031250000001
vt 0.5 0.6104968749999999
vt 0.4375 0.59375
vt 0.420753125 0.39149375
vt 0.454246875 0.39149375
vt 0.4375 0.53125
vt 0.483253125 0.5479968749999999
vt 0.5 0.5770031250000001
vt 0.4375 0.59375
vt 0.454246875 0.39149375
vt 0.48679236561378647 0.3994071771823551
vt 0.4375 0.53125
vt 0.454246875 0.53125
vt 0.483253125 0.5479968749999999
vt 0.4375 0.59375
vt 0.41945763438621353 0.7431571771823551
vt 0.452003125 0.73524375
vt 0.46875 0.875
vt 0.420753125 0.53125
vt 0.454246875 0.53125
vt 0.4375 0.59375
vt 0.452003125 0.73524375
vt 0.485496875 0.73524375
vt 0.46875 0.875
vt 0.391746875 0.5479968749999999
vt 0.420753125 0.53125
vt 0.4375 0.59375
vt 0.485496875 0.73524375
vt 0.5180423656137865 0.7431571771823551
vt 0.46875 0.875
vt 0.375 0.5770031250000001
vt 0.391746875 0.5479968749999999
vt 0.4375 0.59375
vt 0.013207634386213508 0.3681571771823551
vt 0.045753125 0.36024375
vt 0.0625 0.5
vt 0.375 0.6104968749999999
vt 0.375 0.5770031250000001
vt 0.4375 0.59375
vt 0.045753125 0.36024375
vt 0.079246875 0.36024375
vt 0.0625 0.5
vt 0.391746875 0.6395031250000001
vt 0.375 0.6104968749999999
vt 0.4375 0.59375
vt 0.079246875 0.36024375
vt 0.1117923656137865 0.3681571771823551
vt 0.0625 0.5
vt 0.420753125 0.65625
vt 0.391746875 0.6395031250000001
vt 0.4375 0.59375
vt 0.1382076343862135 0.4619071771823551
vt 0.170753125 0.45399375
vt 0.1875 0.59375
vt 0.454246875 0.65625
vt 0.420753125 0.65625
vt 0.4375 0.59375
vt 0.170753125 0.45399375
vt 0.204246875 0.45399375
vt 0.1875 0.59375
vt 0.204246875 0.45399375
vt 0.2367923656137865 0.4619071771823551
vt 0.1875 0.59375
vt 0.38820763438621353 0.3994071771823551
vt 0.420753125 0.39149375
vt 0.4375 0.53125
vn 0 0.9848077530122081 -0.17364817766693072
vn 0 0.9848077530122081 -0.17364817766693072
vn 0 0.9848077530122081 -0.17364817766693072
vn 0.8944271909999161 -0.44041941610082413 0.07765782588644358
vn 0 0.9848077530122081 -0.17364817766693072
vn 0.7745966692414835 -0.3627615902143805 0.5180772419872679
vn 0 0.9848077530122081 -0.17364817766693072
vn 0.44721359549995804 -0.3059121160601662 0.8404866312128895
vn 0 0.9848077530122081 -0.17364817766693072
vn 5.558966154866286e-16 -0.28510376432793694 0.9584966580880918
vn 0 0.9848077530122081 -0.17364817766693072
vn -0.4472135954999579 -0.3059121160601661 0.8404866312128895
vn 0 0.9848077530122081 -0.17364817766693072
vn -0.774596669241484 -0.3627615902143805 0.5180772419872672
vn 0 0.9848077530122081 -0.17364817766693072
vn -0.894427190999916 -0.44041941610082386 0.07765782588644429
vn 0 0.9848077530122081 -0.17364817766693072
vn -0.7745966692414836 -0.5180772419872676 -0.3627615902143804
vn 0 0.9848077530122081 -0.17364817766693072
vn -0.44721359549995804 -0.5749267161414819 -0.6851709794400022
vn 0 0.9848077530122081 -0.17364817766693072
vn 0 -0.5957350678737113 -0.8031810063152047
vn 0.44721359549995815 -0.5749267161414819 -0.6851709794400022
vn 0.7745966692414833 -0.5180772419872677 -0.3627615902143807
usemtl m_3bbefa37-88d9-6f13-af0b-4db97cc72e4d
f 4/1/1 3/2/1 1/3/1
f 5/4/2 4/5/2 1/6/2
f 6/7/3 5/8/3 1/9/3
f 5/10/4 6/11/4 2/12/4
f 7/13/5 6/14/5 1/15/5
f 6/16/6 7/17/6 2/18/6
f 8/19/7 7/20/7 1/21/7
f 7/22/8 8/23/8 2/24/8
f 9/25/9 8/26/9 1/27/9
f 8/28/10 9/29/10 2/30/10
f 10/31/11 9/32/11 1/33/11
f 9/34/12 10/35/12 2/36/12
f 11/37/13 10/38/13 1/39/13
f 10/40/14 11/41/14 2/42/14
f 12/43/15 11/44/15 1/45/15
f 11/46/16 12/47/16 2/48/16
f 13/49/17 12/50/17 1/51/17
f 12/52/18 13/53/18 2/54/18
f 14/55/19 13/56/19 1/57/19
f 13/58/20 14/59/20 2/60/20
f 3/61/21 14/62/21 1/63/21
f 14/64/22 3/65/22 2/66/22
f 3/67/23 4/68/23 2/69/23
f 4/70/24 5/71/24 2/72/24
o cylinder
v -0.0915063509461097 2.4441464995172226 -0.04102117490294194
v -0.03289246510180163 1.884712157329411 0.3319994400775188
v -0.08313293868263712 2.452234594676676 -0.010835992831408556
v -0.06862976320958228 2.4500673961103945 -0.01892408799086233
v -0.060256350946109705 2.4463136980835043 -0.032933079743488164
v -0.1501202367904177 1.7876550154159656 -0.030222744780881924
v -0.25164246510180155 1.8006582068136558 0.018305826175840645
v -0.31025635094610965 1.823180394974998 0.10235977669159578
v -0.3102563509461097 1.8491867777703785 0.19941691860504096
v -0.1227563509461097 2.4463136980835043 -0.03293307974348818
v -0.25164246510180166 1.8717089659317208 0.28347086912079605
v -0.11438293868263713 2.4500673961103945 -0.01892408799086233
v -0.09987976320958229 2.452234594676676 -0.010835992831408556
v -0.060256350946109705 2.4419793009509405 -0.04910927006239571
v -0.06862976320958228 2.4382256029240503 -0.06311826181502156
v -0.08313293868263712 2.4360584043577687 -0.0712063569744753
v -0.09987976320958228 2.4360584043577687 -0.07120635697447533
v -0.11438293868263712 2.4382256029240503 -0.06311826181502156
v -0.1227563509461097 2.4419793009509405 -0.04910927006239571
v -0.0915063509461097 1.8361835863726883 0.1508883476483184
v 0.06862976320958228 1.8717089659317208 0.28347086912079605
v 0.1272436490538903 1.8491867777703785 0.19941691860504102
v 0.1272436490538903 1.823180394974998 0.10235977669159574
v 0.06862976320958228 1.8006582068136558 0.018305826175840756
v -0.032892465101801556 1.7876550154159656 -0.030222744780881924
v -0.15012023679041778 1.884712157329411 0.3319994400775188
vt 0.235496875 0.59375
vt 0.26899062500000004 0.59375
vt 0.26899062500000004 0.84375
vt 0.235496875 0.84375
vt 0.0803688752774408 0.7667461249087414
vt 0.10937512527744081 0.7834929999087413
vt 0.0636220002774408 0.8292461249087414
vt 0.53125 0.954246875
vt 0.5145031250000001 0.983253125
vt 0.46875 0.9375
vt 0.10937512527744081 0.7834929999087413
vt 0.1261220002774408 0.8124992499087413
vt 0.0636220002774408 0.8292461249087414
vt 0.53125 0.9207531250000001
vt 0.53125 0.954246875
vt 0.46875 0.9375
vt 0.5145031250000001 0.8917468749999999
vt 0.53125 0.9207531250000001
vt 0.46875 0.9375
vt 0.485496875 0.875
vt 0.5145031250000001 0.8917468749999999
vt 0.46875 0.9375
vt 0.327003125 0.65625
vt 0.360496875 0.65625
vt 0.360496875 0.90625
vt 0.327003125 0.90625
vt 0.0803688752774408 0.8917461249087414
vt 0.0468751252774408 0.8917461249087414
vt 0.0636220002774408 0.8292461249087414
vt 0.422996875 0.8917468749999999
vt 0.452003125 0.875
vt 0.46875 0.9375
vt 0.360496875 0.65625
vt 0.39399062500000004 0.65625
vt 0.39399062500000004 0.90625
vt 0.360496875 0.90625
vt 0.0468751252774408 0.8917461249087414
vt 0.017868875277440806 0.8749992499087413
vt 0.0636220002774408 0.8292461249087414
vt 0.40625 0.9207531250000001
vt 0.422996875 0.8917468749999999
vt 0.46875 0.9375
vt 0.012259374999999996 0.5
vt 0.045753125 0.5
vt 0.045753125 0.75
vt 0.012259374999999996 0.75
vt 0.017868875277440806 0.8749992499087413
vt 0.0011220002774408044 0.8459929999087413
vt 0.0636220002774408 0.8292461249087414
vt 0.40625 0.954246875
vt 0.40625 0.9207531250000001
vt 0.46875 0.9375
vt 0.045753125 0.5
vt 0.079246875 0.5
vt 0.079246875 0.75
vt 0.045753125 0.75
vt 0.422996875 0.983253125
vt 0.40625 0.954246875
vt 0.46875 0.9375
vt 0.079246875 0.5
vt 0.11274062500000001 0.5
vt 0.11274062500000001 0.75
vt 0.079246875 0.75
vt 0.0011220002774408044 0.8124992499087413
vt 0.017868875277440806 0.7834929999087413
vt 0.0636220002774408 0.8292461249087414
vt 0.168509375 0.59375
vt 0.202003125 0.59375
vt 0.202003125 0.84375
vt 0.168509375 0.84375
vt 0.017868875277440806 0.7834929999087413
vt 0.0468751252774408 0.7667461249087414
vt 0.0636220002774408 0.8292461249087414
vt 0.202003125 0.59375
vt 0.235496875 0.59375
vt 0.235496875 0.84375
vt 0.202003125 0.84375
vt 0.0468751252774408 0.7667461249087414
vt 0.0803688752774408 0.7667461249087414
vt 0.0636220002774408 0.8292461249087414
vt 0.29463125 0.40625
vt 0.328125 0.40625
vt 0.328125 0.65625
vt 0.29463125 0.65625
vt 0.328125 0.40625
vt 0.36161875 0.40625
vt 0.36161875 0.65625
vt 0.328125 0.65625
vt 0.293509375 0.65625
vt 0.327003125 0.65625
vt 0.327003125 0.90625
vt 0.293509375 0.90625
vt 0.3426279997225592 0.9709936087243403
vt 0.32588104315648936 1
vt 0.10937504371137094 0.8749993911844011
vt 0.1261220002774408 0.8459929999087413
vt 0.1261220002774408 0.8459929999087413
vt 0.10937512527744081 0.8749992499087413
vt 0.0636220002774408 0.8292461249087414
vt 0.10937512527744081 0.8749992499087413
vt 0.0803688752774408 0.8917461249087414
vt 0.0636220002774408 0.8292461249087414
vt 0.1261220002774408 0.8124992499087413
vt 0.1261220002774408 0.8459929999087413
vt 0.0636220002774408 0.8292461249087414
vt 0.0011220002774408044 0.8459929999087413
vt 0.0011220002774408044 0.8124992499087413
vt 0.0636220002774408 0.8292461249087414
vt 0.5145031250000001 0.983253125
vt 0.485496875 1
vt 0.46875 0.9375
vt 0.452003125 1
vt 0.422996875 0.983253125
vt 0.46875 0.9375
vt 0.452003125 0.875
vt 0.485496875 0.875
vt 0.46875 0.9375
vt 0.485496875 1
vt 0.452003125 1
vt 0.46875 0.9375
vn 0.4252963766650847 0.4965597978311388 0.7566712358570591
vn 0 0.9659258262890683 -0.25881904510252074
vn 0 -0.9659258262890683 0.25881904510252074
vn 0 0.9659258262890683 -0.25881904510252074
vn 0 -0.9659258262890683 0.25881904510252074
vn 0 -0.9659258262890683 0.25881904510252074
vn 0 -0.9659258262890683 0.25881904510252074
vn 0 -0.06308108523006868 -0.9980084051180116
vn 0 0.9659258262890683 -0.25881904510252074
vn 0 -0.9659258262890683 0.25881904510252074
vn -0.433434552199099 -0.02174481510438575 -0.9009226670342148
vn 0 0.9659258262890683 -0.25881904510252074
vn 0 -0.9659258262890683 0.25881904510252074
vn -0.8034253566600188 0.09976045351312735 -0.5869885417881486
vn 0 0.9659258262890683 -0.25881904510252074
vn 0 -0.9659258262890683 0.25881904510252074
vn -0.9592955508651024 0.27278136300754713 -0.07309154592813372
vn 0 -0.9659258262890683 0.25881904510252074
vn -0.7936170022668094 0.41900008015470164 0.4411473524157171
vn 0 0.9659258262890683 -0.25881904510252074
vn -0.4254907712809595 0.4952269868443703 0.7574350368551618
vn 0 0.9659258262890683 -0.25881904510252074
vn 0 0.5170684527953869 0.8559440490614937
vn 0 0.9659258262890683 -0.25881904510252074
vn 0.7932151443892826 0.4204667306745447 0.4404741344362341
vn 0.9592955508651025 0.27278136300754735 -0.07309154592813323
vn 0.43358531843355796 -0.0233418308204309 -0.9008101523477746
vn 0.8037755045221165 0.09810276386043826 -0.5867885360614677
vn 0 0.9659258262890683 -0.25881904510252074
vn 0 0.9659258262890683 -0.25881904510252074
vn 0 0.9659258262890683 -0.25881904510252074
vn 0 0.9659258262890683 -0.25881904510252074
vn 0 -0.9659258262890683 0.25881904510252074
vn 0 -0.9659258262890683 0.25881904510252074
vn 0 -0.9659258262890683 0.25881904510252074
vn 0 -0.9659258262890683 0.25881904510252074
usemtl m_3bbefa37-88d9-6f13-af0b-4db97cc72e4d
f 16/73/25 35/74/25 18/75/25 17/76/25
f 17/77/26 18/78/26 15/79/26
f 36/80/27 35/81/27 34/82/27
f 18/83/28 19/84/28 15/85/28
f 37/86/29 36/87/29 34/88/29
f 38/89/30 37/90/30 34/91/30
f 39/92/31 38/93/31 34/94/31
f 39/95/32 20/96/32 31/97/32 30/98/32
f 30/99/33 31/100/33 15/101/33
f 21/102/34 20/103/34 34/104/34
f 20/105/35 21/106/35 32/107/35 31/108/35
f 31/109/36 32/110/36 15/111/36
f 22/112/37 21/113/37 34/114/37
f 21/115/38 22/116/38 33/117/38 32/118/38
f 32/119/39 33/120/39 15/121/39
f 23/122/40 22/123/40 34/124/40
f 22/125/41 23/126/41 24/127/41 33/128/41
f 25/129/42 23/130/42 34/131/42
f 23/132/43 25/133/43 26/134/43 24/135/43
f 24/136/44 26/137/44 15/138/44
f 25/139/45 40/140/45 27/141/45 26/142/45
f 26/143/46 27/144/46 15/145/46
f 40/146/47 16/147/47 17/148/47 27/149/47
f 27/150/48 17/151/48 15/152/48
f 35/153/49 36/154/49 19/155/49 18/156/49
f 36/157/50 37/158/50 28/159/50 19/160/50
f 38/161/51 39/162/51 30/163/51 29/164/51
f 37/165/52 38/166/52 29/167/52 28/168/52
f 28/169/53 29/170/53 15/171/53
f 29/172/54 30/173/54 15/174/54
f 19/175/55 28/176/55 15/177/55
f 33/178/56 24/179/56 15/180/56
f 35/181/57 16/182/57 34/183/57
f 40/184/58 25/185/58 34/186/58
f 20/187/59 39/188/59 34/189/59
f 16/190/60 40/191/60 34/192/60
o cylinder
v -0.09150635094610965 1.3745170317974864 0.8795597733886539
v -0.03289246510180158 1.7876550154159658 -0.03022274478088205
v -0.08313293868263706 1.3664289366380327 0.8493745913171206
v -0.06862976320958222 1.3685961352043146 0.8574626864765743
v -0.06025635094610965 1.3723498332312047 0.8714716782292001
v -0.15012023679041764 1.884712157329411 0.33199944007751864
v -0.25164246510180155 1.8717089659317208 0.28347086912079605
v -0.3102563509461096 1.8491867777703785 0.1994169186050409
v -0.31025635094610965 1.823180394974998 0.10235977669159577
v -0.12275635094610965 1.3723498332312047 0.8714716782292001
v -0.25164246510180166 1.800658206813656 0.018305826175840645
v -0.11438293868263708 1.3685961352043146 0.8574626864765743
v -0.09987976320958224 1.3664289366380327 0.8493745913171206
v -0.06025635094610965 1.376684230363768 0.8876478685481076
v -0.06862976320958222 1.3804379283906585 0.9016568603007333
v -0.08313293868263706 1.3826051269569402 0.9097449554601871
v -0.09987976320958222 1.3826051269569402 0.9097449554601871
v -0.11438293868263706 1.3804379283906585 0.9016568603007333
v -0.12275635094610965 1.376684230363768 0.8876478685481076
v -0.09150635094610965 1.8361835863726883 0.1508883476483183
v 0.06862976320958233 1.800658206813656 0.018305826175840645
v 0.12724364905389035 1.823180394974998 0.10235977669159568
v 0.12724364905389035 1.8491867777703785 0.19941691860504096
v 0.06862976320958233 1.8717089659317208 0.28347086912079594
v -0.0328924651018015 1.884712157329411 0.33199944007751864
v -0.15012023679041772 1.7876550154159658 -0.03022274478088205
vt 0.235496875 0.59375
vt 0.26899062500000004 0.59375
vt 0.26899062500000004 0.84375
vt 0.235496875 0.84375
vt 0.0803688752774408 0.7667461249087414
vt 0.10937512527744081 0.7834929999087413
vt 0.0636220002774408 0.8292461249087414
vt 0.53125 0.954246875
vt 0.5145031250000001 0.983253125
vt 0.46875 0.9375
vt 0.10937512527744081 0.7834929999087413
vt 0.1261220002774408 0.8124992499087413
vt 0.0636220002774408 0.8292461249087414
vt 0.53125 0.9207531250000001
vt 0.53125 0.954246875
vt 0.46875 0.9375
vt 0.5145031250000001 0.8917468749999999
vt 0.53125 0.9207531250000001
vt 0.46875 0.9375
vt 0.485496875 0.875
vt 0.5145031250000001 0.8917468749999999
vt 0.46875 0.9375
vt 0.327003125 0.65625
vt 0.360496875 0.65625
vt 0.360496875 0.90625
vt 0.327003125 0.90625
vt 0.0803688752774408 0.8917461249087414
vt 0.0468751252774408 0.8917461249087414
vt 0.0636220002774408 0.8292461249087414
vt 0.422996875 0.8917468749999999
vt 0.452003125 0.875
vt 0.46875 0.9375
vt 0.360496875 0.65625
vt 0.39399062500000004 0.65625
vt 0.39399062500000004 0.90625
vt 0.360496875 0.90625
vt 0.0468751252774408 0.8917461249087414
vt 0.017868875277440806 0.8749992499087413
vt 0.0636220002774408 0.8292461249087414
vt 0.40625 0.9207531250000001
vt 0.422996875 0.8917468749999999
vt 0.46875 0.9375
vt 0.012259374999999996 0.5
vt 0.045753125 0.5
vt 0.045753125 0.75
vt 0.012259374999999996 0.75
vt 0.017868875277440806 0.8749992499087413
vt 0.0011220002774408044 0.8459929999087413
vt 0.0636220002774408 0.8292461249087414
vt 0.40625 0.954246875
vt 0.40625 0.9207531250000001
vt 0.46875 0.9375
vt 0.045753125 0.5
vt 0.079246875 0.5
vt 0.079246875 0.75
vt 0.045753125 0.75
vt 0.422996875 0.983253125
vt 0.40625 0.954246875
vt 0.46875 0.9375
vt 0.079246875 0.5
vt 0.11274062500000001 0.5
vt 0.11274062500000001 0.75
vt 0.079246875 0.75
vt 0.0011220002774408044 0.8124992499087413
vt 0.017868875277440806 0.7834929999087413
vt 0.0636220002774408 0.8292461249087414
vt 0.168509375 0.59375
vt 0.202003125 0.59375
vt 0.202003125 0.84375
vt 0.168509375 0.84375
vt 0.017868875277440806 0.7834929999087413
vt 0.0468751252774408 0.7667461249087414
vt 0.0636220002774408 0.8292461249087414
vt 0.202003125 0.59375
vt 0.235496875 0.59375
vt 0.235496875 0.84375
vt 0.202003125 0.84375
vt 0.0468751252774408 0.7667461249087414
vt 0.0803688752774408 0.7667461249087414
vt 0.0636220002774408 0.8292461249087414
vt 0.29463125 0.40625
vt 0.328125 0.40625
vt 0.328125 0.65625
vt 0.29463125 0.65625
vt 0.328125 0.40625
vt 0.36161875 0.40625
vt 0.36161875 0.65625
vt 0.328125 0.65625
vt 0.293509375 0.65625
vt 0.327003125 0.65625
vt 0.327003125 0.90625
vt 0.293509375 0.90625
vt 0.3426279997225592 0.9709936087243403
vt 0.32588104315648936 1
vt 0.10937504371137094 0.8749993911844011
vt 0.1261220002774408 0.8459929999087413
vt 0.1261220002774408 0.8459929999087413
vt 0.10937512527744081 0.8749992499087413
vt 0.0636220002774408 0.8292461249087414
vt 0.10937512527744081 0.8749992499087413
vt 0.0803688752774408 0.8917461249087414
vt 0.0636220002774408 0.8292461249087414
vt 0.1261220002774408 0.8124992499087413
vt 0.1261220002774408 0.8459929999087413
vt 0.0636220002774408 0.8292461249087414
vt 0.0011220002774408044 0.8459929999087413
vt 0.0011220002774408044 0.8124992499087413
vt 0.0636220002774408 0.8292461249087414
vt 0.5145031250000001 0.983253125
vt 0.485496875 1
vt 0.46875 0.9375
vt 0.452003125 1
vt 0.422996875 0.983253125
vt 0.46875 0.9375
vt 0.452003125 0.875
vt 0.485496875 0.875
vt 0.46875 0.9375
vt 0.485496875 1
vt 0.452003125 1
vt 0.46875 0.9375
vn 0.300905378969074 -0.8670072804683937 -0.3971829912298338
vn 0 -0.9659258262890684 0.25881904510252063
vn 0 0.9659258262890684 -0.25881904510252063
vn 0 -0.9659258262890684 0.25881904510252063
vn 0 0.9659258262890684 -0.25881904510252063
vn 0 0.9659258262890684 -0.25881904510252063
vn 0 0.9659258262890684 -0.25881904510252063
vn 0 0.7547868644360272 0.6559701130957343
vn 0 -0.9659258262890684 0.25881904510252063
vn 0 0.9659258262890684 -0.25881904510252063
vn -0.3856824611211553 0.6786976143672646 0.6249948699275157
vn 0 -0.9659258262890684 0.25881904510252063
vn 0 0.9659258262890684 -0.25881904510252063
vn -0.8078414925589676 0.35961496137990995 0.46697880300054856
vn 0 -0.9659258262890684 0.25881904510252063
vn 0 0.9659258262890684 -0.25881904510252063
vn -0.959007309311835 -0.2737253495854741 0.07334448636935503
vn 0 0.9659258262890684 -0.25881904510252063
vn -0.6493553917705102 -0.7141222878972022 -0.26147071175761294
vn 0 -0.9659258262890684 0.25881904510252063
vn -0.3011589032268379 -0.86662961503273 -0.39781456151758765
vn 0 -0.9659258262890684 0.25881904510252063
vn 0 -0.9019149590765976 -0.4319136564104675
vn 0 -0.9659258262890684 0.25881904510252063
vn 0.6487785529720203 -0.714866201642679 -0.26086912993395817
vn 0.959007309311835 -0.27372534958547473 0.07334448636935466
vn 0.3854025288320002 0.6796231458442707 0.6241612535255905
vn 0.8075153153296788 0.3611852740831707 0.46633058369945485
vn 0 -0.9659258262890684 0.25881904510252063
vn 0 -0.9659258262890684 0.25881904510252063
vn 0 -0.9659258262890684 0.25881904510252063
vn 0 -0.9659258262890684 0.25881904510252063
vn 0 0.9659258262890684 -0.25881904510252063
vn 0 0.9659258262890684 -0.25881904510252063
vn 0 0.9659258262890684 -0.25881904510252063
vn 0 0.9659258262890684 -0.25881904510252063
usemtl m_3bbefa37-88d9-6f13-af0b-4db97cc72e4d
f 42/193/61 61/194/61 44/195/61 43/196/61
f 43/197/62 44/198/62 41/199/62
f 62/200/63 61/201/63 60/202/63
f 44/203/64 45/204/64 41/205/64
f 63/206/65 62/207/65 60/208/65
f 64/209/66 63/210/66 60/211/66
f 65/212/67 64/213/67 60/214/67
f 65/215/68 46/216/68 57/217/68 56/218/68
f 56/219/69 57/220/69 41/221/69
f 47/222/70 46/223/70 60/224/70
f 46/225/71 47/226/71 58/227/71 57/228/71
f 57/229/72 58/230/72 41/231/72
f 48/232/73 47/233/73 60/234/73
f 47/235/74 48/236/74 59/237/74 58/238/74
f 58/239/75 59/240/75 41/241/75
f 49/242/76 48/243/76 60/244/76
f 48/245/77 49/246/77 50/247/77 59/248/77
f 51/249/78 49/250/78 60/251/78
f 49/252/79 51/253/79 52/254/79 50/255/79
f 50/256/80 52/257/80 41/258/80
f 51/259/81 66/260/81 53/261/81 52/262/81
f 52/263/82 53/264/82 41/265/82
f 66/266/83 42/267/83 43/268/83 53/269/83
f 53/270/84 43/271/84 41/272/84
f 61/273/85 62/274/85 45/275/85 44/276/85
f 62/277/86 63/278/86 54/279/86 45/280/86
f 64/281/87 65/282/87 56/283/87 55/284/87
f 63/285/88 64/286/88 55/287/88 54/288/88
f 54/289/89 55/290/89 41/291/89
f 55/292/90 56/293/90 41/294/90
f 45/295/91 54/296/91 41/297/91
f 59/298/92 50/299/92 41/300/92
f 61/301/93 42/302/93 60/303/93
f 66/304/94 51/305/94 60/306/94
f 46/307/95 65/308/95 60/309/95
f 42/310/96 66/311/96 60/312/96